Results
version=1
nRows=4
nColumns=205
inDegrees=yes
endheader
time	/jointset/ground_pelvis/pelvis_tilt/value	/jointset/ground_pelvis/pelvis_tilt/speed	/jointset/ground_pelvis/pelvis_list/value	/jointset/ground_pelvis/pelvis_list/speed	/jointset/ground_pelvis/pelvis_rotation/value	/jointset/ground_pelvis/pelvis_rotation/speed	/jointset/ground_pelvis/pelvis_tx/value	/jointset/ground_pelvis/pelvis_tx/speed	/jointset/ground_pelvis/pelvis_ty/value	/jointset/ground_pelvis/pelvis_ty/speed	/jointset/ground_pelvis/pelvis_tz/value	/jointset/ground_pelvis/pelvis_tz/speed	/jointset/hip_r/hip_flexion_r/value	/jointset/hip_r/hip_flexion_r/speed	/jointset/hip_r/hip_adduction_r/value	/jointset/hip_r/hip_adduction_r/speed	/jointset/hip_r/hip_rotation_r/value	/jointset/hip_r/hip_rotation_r/speed	/jointset/walker_knee_r/knee_angle_r/value	/jointset/walker_knee_r/knee_angle_r/speed	/jointset/patellofemoral_r/knee_angle_r_beta/value	/jointset/patellofemoral_r/knee_angle_r_beta/speed	/jointset/ankle_r/ankle_angle_r/value	/jointset/ankle_r/ankle_angle_r/speed	/jointset/subtalar_r/subtalar_angle_r/value	/jointset/subtalar_r/subtalar_angle_r/speed	/jointset/mtp_r/mtp_angle_r/value	/jointset/mtp_r/mtp_angle_r/speed	/jointset/hip_l/hip_flexion_l/value	/jointset/hip_l/hip_flexion_l/speed	/jointset/hip_l/hip_adduction_l/value	/jointset/hip_l/hip_adduction_l/speed	/jointset/hip_l/hip_rotation_l/value	/jointset/hip_l/hip_rotation_l/speed	/jointset/walker_knee_l/knee_angle_l/value	/jointset/walker_knee_l/knee_angle_l/speed	/jointset/patellofemoral_l/knee_angle_l_beta/value	/jointset/patellofemoral_l/knee_angle_l_beta/speed	/jointset/ankle_l/ankle_angle_l/value	/jointset/ankle_l/ankle_angle_l/speed	/jointset/subtalar_l/subtalar_angle_l/value	/jointset/subtalar_l/subtalar_angle_l/speed	/jointset/mtp_l/mtp_angle_l/value	/jointset/mtp_l/mtp_angle_l/speed	/jointset/back/lumbar_extension/value	/jointset/back/lumbar_extension/speed	/jointset/back/lumbar_bending/value	/jointset/back/lumbar_bending/speed	/jointset/back/lumbar_rotation/value	/jointset/back/lumbar_rotation/speed	/jointset/acromial_r/arm_flex_r/value	/jointset/acromial_r/arm_flex_r/speed	/jointset/acromial_r/arm_add_r/value	/jointset/acromial_r/arm_add_r/speed	/jointset/acromial_r/arm_rot_r/value	/jointset/acromial_r/arm_rot_r/speed	/jointset/elbow_r/elbow_flex_r/value	/jointset/elbow_r/elbow_flex_r/speed	/jointset/radioulnar_r/pro_sup_r/value	/jointset/radioulnar_r/pro_sup_r/speed	/jointset/radius_hand_r/wrist_flex_r/value	/jointset/radius_hand_r/wrist_flex_r/speed	/jointset/radius_hand_r/wrist_dev_r/value	/jointset/radius_hand_r/wrist_dev_r/speed	/jointset/acromial_l/arm_flex_l/value	/jointset/acromial_l/arm_flex_l/speed	/jointset/acromial_l/arm_add_l/value	/jointset/acromial_l/arm_add_l/speed	/jointset/acromial_l/arm_rot_l/value	/jointset/acromial_l/arm_rot_l/speed	/jointset/elbow_l/elbow_flex_l/value	/jointset/elbow_l/elbow_flex_l/speed	/jointset/radioulnar_l/pro_sup_l/value	/jointset/radioulnar_l/pro_sup_l/speed	/jointset/radius_hand_l/wrist_flex_l/value	/jointset/radius_hand_l/wrist_flex_l/speed	/jointset/radius_hand_l/wrist_dev_l/value	/jointset/radius_hand_l/wrist_dev_l/speed	/forceset/addbrev_r/activation	/forceset/addlong_r/activation	/forceset/addlong_r/fiber_length	/forceset/addmagDist_r/activation	/forceset/addmagIsch_r/activation	/forceset/addmagIsch_r/fiber_length	/forceset/addmagMid_r/activation	/forceset/addmagProx_r/activation	/forceset/bflh_r/activation	/forceset/bflh_r/fiber_length	/forceset/bfsh_r/activation	/forceset/edl_r/activation	/forceset/edl_r/fiber_length	/forceset/ehl_r/activation	/forceset/ehl_r/fiber_length	/forceset/fdl_r/activation	/forceset/fdl_r/fiber_length	/forceset/fhl_r/activation	/forceset/fhl_r/fiber_length	/forceset/gaslat_r/activation	/forceset/gaslat_r/fiber_length	/forceset/gasmed_r/activation	/forceset/gasmed_r/fiber_length	/forceset/glmax1_r/activation	/forceset/glmax2_r/activation	/forceset/glmax3_r/activation	/forceset/glmed1_r/activation	/forceset/glmed2_r/activation	/forceset/glmed3_r/activation	/forceset/glmin1_r/activation	/forceset/glmin2_r/activation	/forceset/glmin3_r/activation	/forceset/glmin3_r/fiber_length	/forceset/grac_r/activation	/forceset/iliacus_r/activation	/forceset/perbrev_r/activation	/forceset/perbrev_r/fiber_length	/forceset/perlong_r/activation	/forceset/perlong_r/fiber_length	/forceset/piri_r/activation	/forceset/piri_r/fiber_length	/forceset/psoas_r/activation	/forceset/recfem_r/activation	/forceset/recfem_r/fiber_length	/forceset/sart_r/activation	/forceset/semimem_r/activation	/forceset/semimem_r/fiber_length	/forceset/semiten_r/activation	/forceset/semiten_r/fiber_length	/forceset/soleus_r/activation	/forceset/soleus_r/fiber_length	/forceset/tfl_r/activation	/forceset/tfl_r/fiber_length	/forceset/tibant_r/activation	/forceset/tibant_r/fiber_length	/forceset/tibpost_r/activation	/forceset/tibpost_r/fiber_length	/forceset/vasint_r/activation	/forceset/vasint_r/fiber_length	/forceset/vaslat_r/activation	/forceset/vaslat_r/fiber_length	/forceset/vasmed_r/activation	/forceset/vasmed_r/fiber_length	/forceset/addbrev_l/activation	/forceset/addlong_l/activation	/forceset/addlong_l/fiber_length	/forceset/addmagDist_l/activation	/forceset/addmagIsch_l/activation	/forceset/addmagIsch_l/fiber_length	/forceset/addmagMid_l/activation	/forceset/addmagProx_l/activation	/forceset/bflh_l/activation	/forceset/bflh_l/fiber_length	/forceset/bfsh_l/activation	/forceset/edl_l/activation	/forceset/edl_l/fiber_length	/forceset/ehl_l/activation	/forceset/ehl_l/fiber_length	/forceset/fdl_l/activation	/forceset/fdl_l/fiber_length	/forceset/fhl_l/activation	/forceset/fhl_l/fiber_length	/forceset/gaslat_l/activation	/forceset/gaslat_l/fiber_length	/forceset/gasmed_l/activation	/forceset/gasmed_l/fiber_length	/forceset/glmax1_l/activation	/forceset/glmax2_l/activation	/forceset/glmax3_l/activation	/forceset/glmed1_l/activation	/forceset/glmed2_l/activation	/forceset/glmed3_l/activation	/forceset/glmin1_l/activation	/forceset/glmin2_l/activation	/forceset/glmin3_l/activation	/forceset/glmin3_l/fiber_length	/forceset/grac_l/activation	/forceset/iliacus_l/activation	/forceset/perbrev_l/activation	/forceset/perbrev_l/fiber_length	/forceset/perlong_l/activation	/forceset/perlong_l/fiber_length	/forceset/piri_l/activation	/forceset/piri_l/fiber_length	/forceset/psoas_l/activation	/forceset/recfem_l/activation	/forceset/recfem_l/fiber_length	/forceset/sart_l/activation	/forceset/semimem_l/activation	/forceset/semimem_l/fiber_length	/forceset/semiten_l/activation	/forceset/semiten_l/fiber_length	/forceset/soleus_l/activation	/forceset/soleus_l/fiber_length	/forceset/tfl_l/activation	/forceset/tfl_l/fiber_length	/forceset/tibant_l/activation	/forceset/tibant_l/fiber_length	/forceset/tibpost_l/activation	/forceset/tibpost_l/fiber_length	/forceset/vasint_l/activation	/forceset/vasint_l/fiber_length	/forceset/vaslat_l/activation	/forceset/vaslat_l/fiber_length	/forceset/vasmed_l/activation	/forceset/vasmed_l/fiber_length
      0.01784189	      0.36687285	     33.42899333	     -0.00076740	      0.15181564	      0.01254312	      1.84196999	      0.00015638	      0.01348703	      0.93917794	     -0.11030468	     -0.00001964	     -0.00277235	      5.26670748	    -59.13733749	     -0.00355556	     -0.21639656	     -0.37285098	    -35.84273389	     -0.80392391	    -69.50532742	     -0.01403112	     -1.21309681	     -5.80090994	   -476.61237406	     -0.00000000	      0.00000000	      0.00000000	      0.00000000	     -0.62695042	    -55.31948583	     -0.00295355	      0.42490183	     -0.33179138	    -30.36488884	     -0.73931108	    -62.96437999	     -0.01290341	     -1.09893574	     -5.79228927	   -475.37989852	      0.00000000	      0.00000000	      0.00000000	      0.00000000	     -0.40898467	    -37.35912213	      0.00070958	     -0.20673899	     -0.01256479	     -1.85670655	      0.06198859	      5.81243063	      0.00206899	      0.28236927	     -0.00185449	     -0.12550484	     -0.01509318	     -2.09600548	      0.00879448	      0.31768468	     -0.00000000	     -0.00000000	     -0.00000000	     -0.00000000	      0.06195345	      5.79416091	      0.00166558	      0.07358751	     -0.00192799	     -0.16352124	     -0.01505544	     -2.07634385	      0.00888903	      0.36651156	     -0.00000000	      0.00000000	     -0.00000000	     -0.00000000	      0.00770286	      0.00770286	      0.10852523	      0.00770286	      0.00770286	      0.12900929	      0.00770286	      0.00770286	      0.00770286	      0.09466148	      0.00770286	      0.00770286	      0.07232240	      0.00770286	      0.08149240	      0.00770286	      0.04489110	      0.00770286	      0.05034592	      0.00770286	      0.06696476	      0.00770286	      0.05374669	      0.00770286	      0.00770286	      0.00770286	      0.00770286	      0.00770286	      0.00770286	      0.00770286	      0.00770286	      0.00770286	      0.03898836	      0.00770286	      0.00770286	      0.00770286	      0.04802271	      0.00770286	      0.05345266	      0.00770286	      0.02421919	      0.00770286	      0.00770286	      0.06091832	      0.00770286	      0.00770286	      0.06991689	      0.00770286	      0.21594554	      0.00770286	      0.04510768	      0.00770286	      0.09419831	      0.00770286	      0.07013678	      0.00770286	      0.03859433	      0.00770286	      0.07913709	      0.00770286	      0.07820820	      0.00770286	      0.07987351	      0.00770286	      0.00770286	      0.11326792	      0.00770286	      0.00770286	      0.12484901	      0.00770286	      0.00770286	      0.00770286	      0.08952866	      0.00770286	      0.00770286	      0.07231801	      0.00770286	      0.08148750	      0.00770286	      0.04489187	      0.00770286	      0.05034736	      0.00770286	      0.06695997	      0.00770286	      0.05375140	      0.00770286	      0.00770286	      0.00770286	      0.00770286	      0.00770286	      0.00770286	      0.00770286	      0.00770286	      0.00770286	      0.03780117	      0.00770286	      0.00770286	      0.00770286	      0.04802348	      0.00770286	      0.05345360	      0.00770286	      0.02316365	      0.00770286	      0.00770286	      0.06450213	      0.00770286	      0.00770286	      0.06545117	      0.00770286	      0.21096246	      0.00770286	      0.04510935	      0.00770286	      0.09715795	      0.00770286	      0.07013125	      0.00770286	      0.03859522	      0.00770286	      0.07918302	      0.00770286	      0.07824629	      0.00770286	      0.07991260
      0.01952272	      0.42421317	     34.77134839	     -0.00045365	      0.22265186	      0.01586364	      2.10988797	      0.00017940	      0.01388723	      0.93898026	     -0.12498155	     -0.00002462	     -0.00315636	      5.16549918	    -61.23830040	     -0.00389067	     -0.18136776	     -0.43473043	    -37.76286307	     -0.92225419	    -71.22285817	     -0.01609637	     -1.24307338	     -6.60538711	   -480.00586669	     -0.00000000	      0.00000000	      0.00000000	      0.00000000	     -0.72145185	    -57.07637030	     -0.00205474	      0.64767673	     -0.38388450	    -31.59530757	     -0.84616462	    -64.10902466	     -0.01476836	     -1.11891356	     -6.59454810	   -478.59468771	      0.00000000	      0.00000000	      0.00000000	      0.00000000	     -0.47308068	    -38.87622372	      0.00029163	     -0.29172191	     -0.01591407	     -2.12945203	      0.07198643	      6.07876667	      0.00257522	      0.32013512	     -0.00205898	     -0.11752393	     -0.01873213	     -2.23262391	      0.00934869	      0.34157223	     -0.00000000	     -0.00000000	     -0.00000000	     -0.00000000	      0.07191640	      6.05548850	      0.00177302	      0.05381739	     -0.00220507	     -0.16597954	     -0.01865687	     -2.20758255	      0.00953651	      0.40387639	     -0.00000000	      0.00000000	     -0.00000000	     -0.00000000	      0.00748645	      0.00748645	      0.10861235	      0.00748645	      0.00748645	      0.12894027	      0.00748645	      0.00748645	      0.00748645	      0.09462731	      0.00748645	      0.00748645	      0.07276272	      0.00748645	      0.08197602	      0.00748645	      0.04478544	      0.00748645	      0.05015732	      0.00748645	      0.06646287	      0.00748645	      0.05327567	      0.00748645	      0.00748645	      0.00748645	      0.00748645	      0.00748645	      0.00748645	      0.00748645	      0.00748645	      0.00748645	      0.03895854	      0.00748645	      0.00748645	      0.00748645	      0.04793998	      0.00748645	      0.05334201	      0.00748645	      0.02417795	      0.00748645	      0.00748645	      0.06088713	      0.00748645	      0.00748645	      0.06990462	      0.00748645	      0.21593241	      0.00748645	      0.04483206	      0.00748645	      0.09422092	      0.00748645	      0.07067548	      0.00748645	      0.03848288	      0.00748645	      0.07904448	      0.00748645	      0.07813111	      0.00748645	      0.07979585	      0.00748645	      0.00748645	      0.11334771	      0.00748645	      0.00748645	      0.12479131	      0.00748645	      0.00748645	      0.00748645	      0.08950132	      0.00748645	      0.00748645	      0.07275717	      0.00748645	      0.08196985	      0.00748645	      0.04478647	      0.00748645	      0.05015918	      0.00748645	      0.06645756	      0.00748645	      0.05328118	      0.00748645	      0.00748645	      0.00748645	      0.00748645	      0.00748645	      0.00748645	      0.00748645	      0.00748645	      0.00748645	      0.03776979	      0.00748645	      0.00748645	      0.00748645	      0.04794097	      0.00748645	      0.05334323	      0.00748645	      0.02312564	      0.00748645	      0.00748645	      0.06447104	      0.00748645	      0.00748645	      0.06544247	      0.00748645	      0.21095460	      0.00748645	      0.04483353	      0.00748645	      0.09716940	      0.00748645	      0.07066870	      0.00748645	      0.03848405	      0.00748645	      0.07909910	      0.00748645	      0.07817639	      0.00748645	      0.07984223
      0.02068527	      0.46512985	     35.60773753	     -0.00016492	      0.27434350	      0.01842504	      2.29670294	      0.00019569	      0.01413184	      0.93882896	     -0.13534347	     -0.00002844	     -0.00342356	      5.09354608	    -62.52454099	     -0.00408513	     -0.15251864	     -0.47936264	    -39.00965973	     -1.00562460	    -72.17233650	     -0.01755146	     -1.25964490	     -7.16375038	   -480.31771823	     -0.00000000	     -0.00000000	      0.00000000	      0.00000000	     -0.78842992	    -58.12821627	     -0.00120777	      0.81040007	     -0.42106958	    -32.36594392	     -0.92103820	    -64.66975310	     -0.01607515	     -1.12870012	     -7.15119946	   -478.78325903	      0.00000000	      0.00000000	      0.00000000	      0.00000000	     -0.51883391	    -39.82192019	     -0.00008302	     -0.35306754	     -0.01850029	     -2.31988261	      0.07915192	      6.24623004	      0.00296273	      0.34653049	     -0.00219193	     -0.11107572	     -0.02138041	     -2.32275409	      0.00975511	      0.35753502	     -0.00000000	     -0.00000000	     -0.00000000	     -0.00000000	      0.07905276	      6.21936438	      0.00182701	      0.03891826	     -0.00239868	     -0.16701484	     -0.02127380	     -2.29386206	      0.01002096	      0.42951873	     -0.00000000	      0.00000000	     -0.00000000	     -0.00000000	      0.00733677	      0.00733677	      0.10867429	      0.00733677	      0.00733677	      0.12889117	      0.00733677	      0.00733677	      0.00733677	      0.09460245	      0.00733677	      0.00733677	      0.07306834	      0.00733677	      0.08231036	      0.00733677	      0.04470896	      0.00733677	      0.05002360	      0.00733677	      0.06611121	      0.00733677	      0.05296293	      0.00733677	      0.00733677	      0.00733677	      0.00733677	      0.00733677	      0.00733677	      0.00733677	      0.00733677	      0.00733677	      0.03893710	      0.00733677	      0.00733677	      0.00733677	      0.04788190	      0.00733677	      0.05326431	      0.00733677	      0.02414806	      0.00733677	      0.00733677	      0.06086503	      0.00733677	      0.00733677	      0.06989543	      0.00733677	      0.21592258	      0.00733677	      0.04465717	      0.00733677	      0.09423734	      0.00733677	      0.07104394	      0.00733677	      0.03840306	      0.00733677	      0.07897896	      0.00733677	      0.07807658	      0.00733677	      0.07974096	      0.00733677	      0.00733677	      0.11340187	      0.00733677	      0.00733677	      0.12475029	      0.00733677	      0.00733677	      0.00733677	      0.08948135	      0.00733677	      0.00733677	      0.07306189	      0.00733677	      0.08230322	      0.00733677	      0.04471019	      0.00733677	      0.05002580	      0.00733677	      0.06610572	      0.00733677	      0.05296876	      0.00733677	      0.00733677	      0.00733677	      0.00733677	      0.00733677	      0.00733677	      0.00733677	      0.00733677	      0.00733677	      0.03774749	      0.00733677	      0.00733677	      0.00733677	      0.04788306	      0.00733677	      0.05326574	      0.00733677	      0.02309837	      0.00733677	      0.00733677	      0.06444918	      0.00733677	      0.00733677	      0.06543580	      0.00733677	      0.21094842	      0.00733677	      0.04465857	      0.00733677	      0.09717786	      0.00733677	      0.07103591	      0.00733677	      0.03840445	      0.00733677	      0.07904004	      0.00733677	      0.07812721	      0.00733677	      0.07979276
      0.02184783	      0.50697654	     36.37160211	      0.00018552	      0.32904114	      0.02120407	      2.48421752	      0.00021224	      0.01434901	      0.93866551	     -0.14586347	     -0.00003258	     -0.00369169	      5.02017400	    -63.68032985	     -0.00424467	     -0.12167942	     -0.52540904	    -40.19703841	     -1.08999142	    -72.93953939	     -0.01902394	     -1.27303512	     -7.72161419	   -479.18555575	     -0.00000000	     -0.00000000	      0.00000000	      0.00000000	     -0.85655599	    -59.05212883	     -0.00016752	      0.98031766	     -0.45911628	    -33.07894405	     -0.99645919	    -65.05296058	     -0.01739149	     -1.13538835	     -7.70720435	   -477.52063165	      0.00000000	      0.00000000	      0.00000000	      0.00000000	     -0.56563900	    -40.68618793	     -0.00053057	     -0.41737007	     -0.02130849	     -2.51127116	      0.08650452	      6.40075151	      0.00338109	      0.37325489	     -0.00231698	     -0.10396467	     -0.02413134	     -2.40920292	      0.01017976	      0.37291151	     -0.00000000	     -0.00000000	     -0.00000000	     -0.00000000	      0.08637198	      6.37018221	      0.00186307	      0.02294087	     -0.00259324	     -0.16763495	     -0.02398885	     -2.37633795	      0.01053509	      0.45491059	     -0.00000000	      0.00000000	     -0.00000000	     -0.00000000	      0.00718709	      0.00718709	      0.10873760	      0.00718709	      0.00718709	      0.12884110	      0.00718709	      0.00718709	      0.00718709	      0.09457664	      0.00718709	      0.00718709	      0.07337370	      0.00718709	      0.08264408	      0.00718709	      0.04463019	      0.00718709	      0.04988784	      0.00718709	      0.06575786	      0.00718709	      0.05267009	      0.00718709	      0.00718709	      0.00718709	      0.00718709	      0.00718709	      0.00718709	      0.00718709	      0.00718709	      0.00718709	      0.03891504	      0.00718709	      0.00718709	      0.00718709	      0.04782337	      0.00718709	      0.05318600	      0.00718709	      0.02411714	      0.00718709	      0.00718709	      0.06084261	      0.00718709	      0.00718709	      0.06988568	      0.00718709	      0.21591215	      0.00718709	      0.04449007	      0.00718709	      0.09425435	      0.00718709	      0.07141589	      0.00718709	      0.03832119	      0.00718709	      0.07891247	      0.00718709	      0.07802123	      0.00718709	      0.07968531	      0.00718709	      0.00718709	      0.11345942	      0.00718709	      0.00718709	      0.12470846	      0.00718709	      0.00718709	      0.00718709	      0.08946054	      0.00718709	      0.00718709	      0.07336628	      0.00718709	      0.08263588	      0.00718709	      0.04463166	      0.00718709	      0.04989042	      0.00718709	      0.06575214	      0.00718709	      0.05267581	      0.00718709	      0.00718709	      0.00718709	      0.00718709	      0.00718709	      0.00718709	      0.00718709	      0.00718709	      0.00718709	      0.03772476	      0.00718709	      0.00718709	      0.00718709	      0.04782472	      0.00718709	      0.05318767	      0.00718709	      0.02307040	      0.00718709	      0.00718709	      0.06442715	      0.00718709	      0.00718709	      0.06542858	      0.00718709	      0.21094162	      0.00718709	      0.04449142	      0.00718709	      0.09718675	      0.00718709	      0.07140674	      0.00718709	      0.03832282	      0.00718709	      0.07898037	      0.00718709	      0.07807751	      0.00718709	      0.07974282
